<svg width="30" height="30" viewBox="0 0 30 30" fill="none" xmlns="http://www.w3.org/2000/svg">
<ellipse cx="15" cy="13.9615" rx="9.23077" ry="8.88461" fill="black"/>
<path d="M14.9975 2.50626C21.8937 2.50626 27.4937 8.10626 27.4937 15.0025C27.4937 21.9 21.8937 27.5 14.9975 27.5C8.1 27.5 2.5 21.9 2.5 15.0025C2.5 8.10626 8.1 2.50626 14.9975 2.50626V2.50626ZM8.68625 15.4888L13.5 19.7763C13.6775 19.9363 13.9012 20.0138 14.1237 20.0138C14.3762 20.0138 14.63 19.9125 14.8137 19.7113L22.255 11.575C22.4187 11.3963 22.5 11.1713 22.5 10.9475C22.5 10.435 22.0862 10.0138 21.565 10.0138C21.31 10.0138 21.0587 10.1163 20.8725 10.3175L14.0562 17.77L9.93375 14.0975C9.75375 13.9388 9.5325 13.86 9.31 13.86C8.79125 13.86 8.375 14.2788 8.375 14.7925C8.375 15.0488 8.48 15.3038 8.68625 15.4888V15.4888Z" fill="#AAAAAA"/>
</svg>
