<svg width="130" height="130" viewBox="0 0 130 130" fill="none" xmlns="http://www.w3.org/2000/svg">
<g clip-path="url(#clip0_23_25)">
<path d="M53.9988 65.8017C53.9988 64.0521 55.4179 62.6329 57.1675 62.6329C58.9171 62.6329 60.3363 64.0521 60.3363 65.8017C60.3363 67.5513 58.9117 68.9704 57.1675 68.9704C55.4179 68.9704 53.9988 67.5513 53.9988 65.8017V65.8017ZM16.1796 38.1442C18.1946 33.9517 22.6254 31.3408 27.7442 31.3408C30.0788 31.3408 32.4567 31.8933 34.6288 32.9387C41.7517 36.3837 45.0829 44.3246 42.0496 50.635C39.0054 56.9779 30.745 59.2963 23.6058 55.8296C16.4829 52.3846 13.1517 44.4546 16.1796 38.1442V38.1442ZM27.0942 48.6092C29.965 50.0013 33.6592 49.5517 34.8129 47.1629C35.9125 44.8717 34.2279 41.6704 31.1296 40.17C28.1233 38.7075 24.4617 39.4496 23.4163 41.6217C22.3167 43.9129 24.0013 47.1088 27.0942 48.6092V48.6092ZM42.2175 79.3921C45.2346 85.7133 41.8871 93.6379 34.7533 97.0721C32.5921 98.1067 30.225 98.6537 27.9067 98.6537C22.7717 98.6537 18.33 96.0375 16.315 91.8233C13.2979 85.5021 16.6508 77.5775 23.7846 74.1542C30.8642 70.7471 39.1517 72.9842 42.2175 79.3921ZM34.9754 82.8533C33.9625 80.7354 30.5663 79.8092 27.2621 81.3854C24.1638 82.875 22.4683 86.0763 23.5625 88.3675C24.2288 89.7596 25.8971 90.6263 27.9067 90.6263C29.0333 90.6263 30.1925 90.3554 31.2758 89.8354C34.3796 88.3458 36.0696 85.15 34.9754 82.8533V82.8533ZM76.0446 49.2754C86.6342 44.3842 96.4058 39.9425 98.8542 38.7671C104.298 36.1508 110.375 40.1213 113.831 44.8717L90.3608 56.225L102.624 62.1779L130 48.9342C124.805 40.9608 116.442 27.2079 102.527 27.2079C99.645 27.2079 96.85 27.8525 94.2121 29.12C92.95 29.7267 74.3004 38.2038 63.5538 43.2142L76.0446 49.2754ZM3.8147e-06 43.0192C3.8147e-06 28.0042 12.2092 16.25 27.7983 16.25C43.0354 16.25 58.1858 27.9988 58.2292 46.6321L129.773 81.2879C124.524 89.3046 116.123 102.971 102.272 102.971C99.3796 102.971 96.5683 102.321 93.9196 101.042C93.9196 101.042 68.4721 89.5483 58.4025 84.6733C58.175 100.468 44.4492 113.75 27.9554 113.75C12.3662 113.75 0.15167 101.996 0.15167 86.9808C0.15167 78.6933 4.04084 70.6929 10.4758 65.0704C3.95417 59.4425 3.8147e-06 51.3717 3.8147e-06 43.0192V43.0192ZM10.7033 43.0192C10.7033 49.6871 14.8525 56.3333 21.71 59.8C29.2283 63.5971 31.6821 59.7567 42.5533 65.0704C31.9258 70.1946 29.3963 66.4246 21.905 70.1838C15.0258 73.6396 10.8604 80.2967 10.8604 86.9808C10.8604 95.875 18.1946 103.047 27.9608 103.047C40.1863 103.047 49.9742 91.7583 47.255 80.5513C46.1663 76.0825 48.5225 75.4813 52.1138 73.7533L56.2792 71.7492C72.8704 79.7929 93.7896 89.0879 98.5833 91.4063C104.022 94.0279 110.11 90.0846 113.571 85.3342L51.9242 56.3063C48.3329 54.5675 45.9821 53.9608 47.0817 49.4921C49.8658 38.1388 39.91 26.9479 27.7929 26.9479C18.0538 26.9533 10.7033 34.1033 10.7033 43.0192V43.0192Z" fill="white"/>
</g>
<defs>
<clipPath id="clip0_23_25">
<rect width="130" height="130" fill="white" transform="translate(130 130) rotate(-180)"/>
</clipPath>
</defs>
</svg>
