<svg width="130" height="130" viewBox="0 0 130 130" fill="none" xmlns="http://www.w3.org/2000/svg">
<g clip-path="url(#clip0_23_15)">
<path d="M3.8147e-06 64.6533C3.8147e-06 59.2367 5.34084 30.1329 8.04917 19.9658C11.9167 5.40042 21.4338 0 35.1813 0C47.5475 0 57.2758 3.34208 64.0846 6.2725C75.1888 11.0554 84.6192 14.5004 97.5 15.73V10.8333L130 10.8333V75.8333H97.5V71.8792C84.2075 75.0479 71.2183 83.07 62.8333 111.973C60.2171 120.965 57.5683 130 47.4879 130C28.8113 130 31.2108 100.04 35.5929 82.2575C29.6021 79.7333 20.605 78.5092 14.0508 78.2275C6.32667 77.9025 3.8147e-06 73.58 3.8147e-06 64.6533ZM108.333 65H119.167V21.6667H108.333V65ZM22.9938 57.9475L15.4429 58.8521C9.62 59.5508 9.4575 67.1125 15.1667 67.4321C30.0571 68.2662 42.575 72.9192 48.3167 75.8604C45.9875 85.3287 43.3333 94.6183 43.3333 105.836C43.3333 119.405 47.5638 125.694 52.4279 108.945C63.2233 71.7925 79.82 63.6404 97.5 59.5833V27.0833C83.8446 26.6933 71.9333 21.4446 59.8054 16.2229C50.4292 12.1875 33.54 8.125 25.0521 12.8971C18.0375 17.4254 19.0179 22.2896 23.4704 21.8942L27.6467 21.7208C32.0613 21.2117 32.63 27.5058 28.2371 27.9012C28.2371 27.9012 21.0817 28.2371 18.785 28.5242C13.4983 29.1904 13.2167 37.2287 19.0017 36.9254C21.4771 36.7954 25.1929 36.7033 25.1929 36.7033C29.51 36.5354 29.9325 42.5425 25.9567 43.0517C25.9567 43.0517 22.0892 43.0787 16.4179 43.5879C10.7467 44.0971 10.5788 52.3033 16.4396 52.0542C21.1413 51.8537 22.23 51.9079 22.23 51.9079C26.2925 51.935 26.9696 57.4762 22.9938 57.9475Z" fill="white"/>
</g>
<defs>
<clipPath id="clip0_23_15">
<rect width="130" height="130" fill="white" transform="matrix(-1 0 0 1 130 0)"/>
</clipPath>
</defs>
</svg>
