<svg width="130" height="130" viewBox="0 0 130 130" fill="none" xmlns="http://www.w3.org/2000/svg">
<path fill-rule="evenodd" clip-rule="evenodd" d="M65 116.962C34.5042 86.9592 5.41667 61.1867 5.41667 38.9512C5.41667 18.4167 22.035 10.8333 34.0221 10.8333C41.1287 10.8333 56.5067 13.5471 65 34.9754C73.6125 13.4821 89.18 10.8875 96.0158 10.8875C109.774 10.8875 124.583 19.6679 124.583 38.9512C124.583 60.9917 96.7633 85.67 65 116.962ZM96.0158 5.47083C84.0829 5.47083 71.9333 11.115 65 23.01C58.0396 11.0608 45.9225 5.41667 34.0221 5.41667C16.7808 5.41667 0 17.2629 0 38.9512C0 64.1983 30.1762 90.025 65 124.583C99.8292 90.025 130 64.1983 130 38.9512C130 17.225 113.235 5.47083 96.0158 5.47083" fill="white"/>
<path d="M80.5417 75.0471C80.5417 66.9598 73.614 63.6758 66.7917 60.7127V50.0496C70.0458 50.1688 73.3229 51.0877 76.325 52.1442L77.9865 44.5931C73.8294 43.3304 70.1077 42.7529 66.7917 42.6658V38H62.2083V42.8904C53.2915 44.1165 48.5294 49.7081 48.5294 55.9529C48.5294 64.7919 56.6831 67.7 62.2083 69.5173V80.3156C58.2988 80.2721 53.9767 78.8948 50.5415 77.561L48.4583 85.096C52.5536 87.2113 57.4669 88.3433 62.2083 88.4258V93H66.7917V88.176C74.3817 87.1127 80.5531 82.9213 80.5417 75.0471V75.0471ZM62.2083 50.6569V58.6365C58.5165 56.5258 58.3629 52.2863 62.2083 50.6569V50.6569ZM66.7917 79.5342V71.3048C71.0106 73.7454 70.4698 77.8681 66.7917 79.5342Z" fill="white"/>
</svg>
