<svg width="130" height="130" viewBox="0 0 130 130" fill="none" xmlns="http://www.w3.org/2000/svg">
<g clip-path="url(#clip0_23_13)">
<path d="M115.949 51.7725C109.395 51.4962 100.403 50.2667 94.4071 47.7425C98.7892 29.9596 101.194 0 82.5121 0C72.4317 0 69.7775 9.035 67.1667 18.0321C58.7817 46.9354 45.7925 54.9521 32.5 58.1208V54.1667H0V119.167H32.5V114.27C45.3808 115.505 54.8112 118.95 65.9154 123.727C72.7242 126.658 82.4525 130 94.8187 130C108.566 130 118.083 124.6 121.951 110.034C124.659 99.8671 130 70.7633 130 65.3467C130 56.42 123.673 52.0975 115.949 51.7725V51.7725ZM21.6667 108.333H10.8333V65H21.6667V108.333ZM107.77 78.0921C107.77 78.0921 108.859 78.1462 113.56 77.9458C119.421 77.6967 119.253 85.9029 113.582 86.4121L104.043 86.9483C100.067 87.4575 100.49 93.4646 104.807 93.2967C104.807 93.2967 108.523 93.2046 110.998 93.0746C116.783 92.7713 116.502 100.815 111.215 101.476C108.918 101.763 101.763 102.099 101.763 102.099C97.37 102.489 97.9387 108.788 102.353 108.279L106.53 108.111C110.982 107.71 111.962 112.58 104.948 117.108C96.46 121.88 79.5708 117.818 70.1946 113.782C58.0667 108.555 46.1554 103.307 32.5 102.917V70.4167C50.18 66.3596 66.7767 58.2075 77.5721 21.0546C82.4362 4.30625 86.6667 10.595 86.6667 24.1637C86.6667 35.3817 84.0125 44.6713 81.6779 54.1342C87.425 57.0754 99.9375 61.7283 114.828 62.5625C120.542 62.8821 120.375 70.4437 114.552 71.1425L107.001 72.0471C107.001 72.0471 103.707 78.065 107.77 78.0921V78.0921Z" fill="white"/>
</g>
<defs>
<clipPath id="clip0_23_13">
<rect width="130" height="130" fill="white"/>
</clipPath>
</defs>
</svg>
