<svg width="130" height="130" viewBox="0 0 130 130" fill="none" xmlns="http://www.w3.org/2000/svg">
<path fill-rule="evenodd" clip-rule="evenodd" d="M89.375 64.9729C89.375 58.2454 94.835 52.7854 101.562 52.7854C108.29 52.7854 113.75 58.2454 113.75 64.9729C113.75 71.7004 108.29 77.1604 101.562 77.1604C94.835 77.1604 89.375 71.7004 89.375 64.9729ZM52.8125 64.9729C52.8125 58.2454 58.2725 52.7854 65 52.7854C71.7275 52.7854 77.1875 58.2454 77.1875 64.9729C77.1875 71.7004 71.7275 77.1604 65 77.1604C58.2725 77.1604 52.8125 71.7004 52.8125 64.9729ZM16.25 64.9729C16.25 58.2454 21.71 52.7854 28.4375 52.7854C35.165 52.7854 40.625 58.2454 40.625 64.9729C40.625 71.7004 35.165 77.1604 28.4375 77.1604C21.71 77.1604 16.25 71.7004 16.25 64.9729Z" fill="white"/>
</svg>
