<svg width="512" height="512" viewBox="0 0 512 512" fill="none" xmlns="http://www.w3.org/2000/svg">
<path d="M320 448C320 482.091 290.304 512 256.619 512C222.933 512 192 482.091 192 448H320ZM322.923 84.16C309.184 76.1813 300.693 61.3333 300.715 45.3333V45.2693C300.736 20.2667 280.704 0 256 0C231.296 0 211.264 20.2667 211.264 45.2693V45.3333C211.285 61.3547 202.816 76.1813 189.056 84.16C89.472 141.952 146.709 334.08 42.6667 368.021V405.333H469.333V368.021C365.291 334.08 422.549 141.931 322.923 84.16ZM256 21.3333C267.776 21.3333 277.333 30.912 277.333 42.6667C277.333 54.4427 267.776 64 256 64C244.224 64 234.667 54.4427 234.667 42.6667C234.667 30.912 244.224 21.3333 256 21.3333ZM118.379 362.667C143.744 327.104 152.619 279.659 160.277 238.613C169.813 187.627 178.816 139.456 210.496 121.088C239.936 104 273.557 104.875 301.525 121.088C333.205 139.456 342.208 187.627 351.744 238.613C359.403 279.659 368.277 327.104 393.643 362.667H118.379Z" fill="white"/>
</svg>
