<svg width="430" height="430" viewBox="0 0 430 430" fill="none" xmlns="http://www.w3.org/2000/svg">
<circle cx="215" cy="215" r="215" fill="#181818"/>
<path d="M215 257.75C238.803 257.75 258.091 238.615 258.091 215V143.75C258.091 120.135 238.803 101 215 101C191.197 101 171.909 120.135 171.909 143.75V215C171.909 238.602 190.806 257.75 215 257.75ZM283.227 186.5C277.257 186.5 272.455 191.265 272.455 196.787V215C272.455 247.655 244.638 273.959 211.274 271.866C181.614 270.01 157.545 242.213 157.545 212.729V196.787C157.545 191.265 152.72 186.5 146.773 186.5C140.825 186.5 136 191.265 136 196.787V211.104C136 251.03 164.714 286.629 204.227 292.017V307.625H186.273C178.108 307.625 171.532 314.385 171.927 322.574C172.102 326.239 175.41 329 179.091 329H250.909C254.6 329 257.898 326.232 258.073 322.574C258.45 314.394 251.897 307.625 243.727 307.625H225.773V292.587C264.24 287.363 294 254.588 294 215V196.787C294 191.265 289.197 186.5 283.227 186.5Z" fill="white"/>
</svg>
