<svg width="448" height="512" viewBox="0 0 448 512" fill="none" xmlns="http://www.w3.org/2000/svg">
<path d="M277.48 354.133C277.48 342.827 268.707 332.8 258.813 332.8H189.187C179.293 332.8 170.52 342.827 170.52 354.133V405.333C170.52 416.64 179.293 426.667 189.187 426.667H258.813C268.707 426.667 277.48 416.64 277.48 405.333V354.133ZM144.293 354.133C144.293 342.827 135.52 332.8 125.627 332.8H56C46.1067 332.8 37.3333 342.827 37.3333 354.133V405.333C37.3333 416.64 46.1067 426.667 56 426.667H125.627C135.52 426.667 144.293 416.64 144.293 405.333V354.133ZM410.667 354.133C410.667 342.827 401.893 332.8 392 332.8H322.373C312.48 332.8 303.707 342.827 303.707 354.133V405.333C303.707 416.64 312.48 426.667 322.373 426.667H392C401.893 426.667 410.667 416.64 410.667 405.333V354.133ZM198.52 364.8H249.48V394.667H198.52V364.8ZM65.3333 364.8H116.293V394.667H65.3333V364.8ZM331.707 364.8H382.667V394.667H331.707V364.8ZM277.48 230.4C277.48 219.093 268.707 209.067 258.813 209.067H189.187C179.293 209.067 170.52 219.093 170.52 230.4V281.6C170.52 292.907 179.293 302.933 189.187 302.933H258.813C268.707 302.933 277.48 292.907 277.48 281.6V230.4ZM144.293 230.4C144.293 219.093 135.52 209.067 125.627 209.067H56C46.1067 209.067 37.3333 219.093 37.3333 230.4V281.6C37.3333 292.907 46.1067 302.933 56 302.933H125.627C135.52 302.933 144.293 292.907 144.293 281.6V230.4ZM410.667 230.4C410.667 219.093 401.893 209.067 392 209.067H322.373C312.48 209.067 303.707 219.093 303.707 230.4V281.6C303.707 292.907 312.48 302.933 322.373 302.933H392C401.893 302.933 410.667 292.907 410.667 281.6V230.4ZM198.52 241.067H249.48V270.933H198.52V241.067ZM65.3333 241.067H116.293V270.933H65.3333V241.067ZM331.707 241.067H382.667V270.933H331.707V241.067ZM277.48 106.667C277.48 95.36 268.707 85.3333 258.813 85.3333H189.187C179.293 85.3333 170.52 95.36 170.52 106.667V157.867C170.52 169.173 179.293 179.2 189.187 179.2H258.813C268.707 179.2 277.48 169.173 277.48 157.867V106.667ZM144.293 106.667C144.293 95.36 135.52 85.3333 125.627 85.3333H56C46.1067 85.3333 37.3333 95.36 37.3333 106.667V157.867C37.3333 169.173 46.1067 179.2 56 179.2H125.627C135.52 179.2 144.293 169.173 144.293 157.867V106.667ZM410.667 106.667C410.667 95.36 401.893 85.3333 392 85.3333H322.373C312.48 85.3333 303.707 95.36 303.707 106.667V157.867C303.707 169.173 312.48 179.2 322.373 179.2H392C401.893 179.2 410.667 169.173 410.667 157.867V106.667ZM198.52 117.333H249.48V147.2H198.52V117.333ZM65.3333 117.333H116.293V147.2H65.3333V117.333ZM331.707 117.333H382.667V147.2H331.707V117.333Z" fill="white"/>
</svg>
