<svg width="130" height="130" viewBox="0 0 130 130" fill="none" xmlns="http://www.w3.org/2000/svg">
<path fill-rule="evenodd" clip-rule="evenodd" d="M85.8704 89.7C76.7542 97.9171 64.6858 102.917 51.4583 102.917C23.0587 102.917 0 79.8579 0 51.4583C0 23.0587 23.0587 0 51.4583 0C79.8579 0 102.917 23.0587 102.917 51.4583C102.917 64.6858 97.9171 76.7542 89.7 85.8704L130 126.17L126.17 130L85.8704 89.7V89.7ZM51.4583 5.41667C76.8679 5.41667 97.5 26.0487 97.5 51.4583C97.5 76.8679 76.8679 97.5 51.4583 97.5C26.0487 97.5 5.41667 76.8679 5.41667 51.4583C5.41667 26.0487 26.0487 5.41667 51.4583 5.41667V5.41667Z" fill="white"/>
</svg>
