<svg width="430" height="430" viewBox="0 0 430 430" fill="none" xmlns="http://www.w3.org/2000/svg">
<ellipse cx="214.58" cy="233.896" rx="159.15" ry="152.432" fill="#CBC0E5"/>
<path d="M215 0C96.2461 0 0 96.2461 0 215C0 333.754 96.2461 430 215 430C333.754 430 430 333.754 430 215C430 96.2461 333.754 0 215 0ZM215 107.5C248.401 107.5 275.469 134.577 275.469 167.969C275.469 201.361 248.426 228.438 215 228.438C181.608 228.438 154.531 201.361 154.531 167.969C154.531 134.577 181.574 107.5 215 107.5ZM215 376.25C170.547 376.25 130.26 358.168 101.033 328.975C114.639 293.861 148.232 268.75 188.125 268.75H241.875C281.801 268.75 315.395 293.845 328.967 328.975C299.74 358.193 259.428 376.25 215 376.25Z" fill="#502CA7"/>
</svg>
