<svg width="535" height="412" viewBox="0 0 535 412" fill="none" xmlns="http://www.w3.org/2000/svg">
<path fill-rule="evenodd" clip-rule="evenodd" d="M316.873 51C338.502 51 356.057 66.3813 356.057 85.3333V154L493.203 85.3333V325.667L356.057 257V325.667C356.057 344.619 338.502 360 316.873 360H62.1729C40.543 360 22.9883 344.619 22.9883 325.667V85.3333C22.9883 66.3813 40.543 51 62.1729 51H316.873ZM316.873 342.833C327.687 342.833 336.465 335.143 336.465 325.667V85.3333C336.465 75.8745 327.687 68.1667 316.873 68.1667H62.1729C51.3775 68.1667 42.5806 75.8745 42.5806 85.3333V325.667C42.5806 335.143 51.3775 342.833 62.1729 342.833H316.873ZM356.057 173.776V237.224L473.611 296.088V114.911L356.057 173.776V173.776Z" fill="white"/>
<rect x="174" y="88" width="26" height="236" rx="8" fill="white"/>
<rect x="69" y="219" width="26" height="236" rx="8" transform="rotate(-90 69 219)" fill="white"/>
</svg>
