<svg width="130" height="130" viewBox="0 0 130 130" fill="none" xmlns="http://www.w3.org/2000/svg">
<path fill-rule="evenodd" clip-rule="evenodd" d="M64.9729 40.625C58.2454 40.625 52.7854 35.165 52.7854 28.4375C52.7854 21.71 58.2454 16.25 64.9729 16.25C71.7004 16.25 77.1604 21.71 77.1604 28.4375C77.1604 35.165 71.7004 40.625 64.9729 40.625ZM64.9729 77.1875C58.2454 77.1875 52.7854 71.7275 52.7854 65C52.7854 58.2725 58.2454 52.8125 64.9729 52.8125C71.7004 52.8125 77.1604 58.2725 77.1604 65C77.1604 71.7275 71.7004 77.1875 64.9729 77.1875ZM64.9729 113.75C58.2454 113.75 52.7854 108.29 52.7854 101.563C52.7854 94.835 58.2454 89.375 64.9729 89.375C71.7004 89.375 77.1604 94.835 77.1604 101.563C77.1604 108.29 71.7004 113.75 64.9729 113.75Z" fill="white"/>
</svg>
