<svg width="233" height="232" viewBox="0 0 233 232" fill="none" xmlns="http://www.w3.org/2000/svg">
<ellipse cx="116.272" cy="126.195" rx="86.2373" ry="82.2422" fill="#6DDEA8"/>
<path d="M116.5 0C52.152 0 0 51.9281 0 116C0 180.072 52.152 232 116.5 232C180.848 232 233 180.072 233 116C233 51.9281 180.848 0 116.5 0ZM116.5 58C134.598 58 149.266 72.6088 149.266 90.625C149.266 108.641 134.612 123.25 116.5 123.25C98.4061 123.25 83.7344 108.641 83.7344 90.625C83.7344 72.6088 98.3879 58 116.5 58ZM116.5 203C92.4127 203 70.5826 193.244 54.7459 177.494C62.1182 158.548 80.3213 145 101.938 145H131.062C152.697 145 170.9 158.539 178.254 177.494C162.417 193.258 140.574 203 116.5 203Z" fill="#AAAAAA"/>
</svg>
